<svg width="34" height="34" viewBox="0 0 34 34" fill="none" xmlns="http://www.w3.org/2000/svg">
<path d="M5.99956 13.2C6.31782 13.2 6.62305 13.0735 6.84809 12.8485C7.07313 12.6234 7.19956 12.3182 7.19956 12V8.39996C7.19956 8.0817 7.32599 7.77647 7.55103 7.55143C7.77608 7.32639 8.0813 7.19996 8.39956 7.19996H11.9996C12.3178 7.19996 12.623 7.07353 12.8481 6.84849C13.0731 6.62344 13.1996 6.31822 13.1996 5.99996C13.1996 5.6817 13.0731 5.37647 12.8481 5.15143C12.623 4.92639 12.3178 4.79996 11.9996 4.79996H8.39956C7.44478 4.79996 6.52911 5.17924 5.85398 5.85437C5.17885 6.5295 4.79956 7.44518 4.79956 8.39996V12C4.79956 12.3182 4.92599 12.6234 5.15103 12.8485C5.37608 13.0735 5.6813 13.2 5.99956 13.2ZM11.9996 26.4H8.39956C8.0813 26.4 7.77608 26.2735 7.55103 26.0485C7.32599 25.8234 7.19956 25.5182 7.19956 25.2V21.6C7.19956 21.2817 7.07313 20.9765 6.84809 20.7514C6.62305 20.5264 6.31782 20.4 5.99956 20.4C5.6813 20.4 5.37608 20.5264 5.15103 20.7514C4.92599 20.9765 4.79956 21.2817 4.79956 21.6V25.2C4.79956 26.1547 5.17885 27.0704 5.85398 27.7455C6.52911 28.4207 7.44478 28.8 8.39956 28.8H11.9996C12.3178 28.8 12.623 28.6735 12.8481 28.4485C13.0731 28.2234 13.1996 27.9182 13.1996 27.6C13.1996 27.2817 13.0731 26.9765 12.8481 26.7514C12.623 26.5264 12.3178 26.4 11.9996 26.4ZM27.5996 20.4C27.2813 20.4 26.9761 20.5264 26.751 20.7514C26.526 20.9765 26.3996 21.2817 26.3996 21.6V25.2C26.3996 25.5182 26.2731 25.8234 26.0481 26.0485C25.823 26.2735 25.5178 26.4 25.1996 26.4H21.5996C21.2813 26.4 20.9761 26.5264 20.751 26.7514C20.526 26.9765 20.3996 27.2817 20.3996 27.6C20.3996 27.9182 20.526 28.2234 20.751 28.4485C20.9761 28.6735 21.2813 28.8 21.5996 28.8H25.1996C26.1543 28.8 27.07 28.4207 27.7451 27.7455C28.4203 27.0704 28.7996 26.1547 28.7996 25.2V21.6C28.7996 21.2817 28.6731 20.9765 28.4481 20.7514C28.223 20.5264 27.9178 20.4 27.5996 20.4ZM25.1996 4.79996H21.5996C21.2813 4.79996 20.9761 4.92639 20.751 5.15143C20.526 5.37647 20.3996 5.6817 20.3996 5.99996C20.3996 6.31822 20.526 6.62344 20.751 6.84849C20.9761 7.07353 21.2813 7.19996 21.5996 7.19996H25.1996C25.5178 7.19996 25.823 7.32639 26.0481 7.55143C26.2731 7.77647 26.3996 8.0817 26.3996 8.39996V12C26.3996 12.3182 26.526 12.6234 26.751 12.8485C26.9761 13.0735 27.2813 13.2 27.5996 13.2C27.9178 13.2 28.223 13.0735 28.4481 12.8485C28.6731 12.6234 28.7996 12.3182 28.7996 12V8.39996C28.7996 7.44518 28.4203 6.5295 27.7451 5.85437C27.07 5.17924 26.1543 4.79996 25.1996 4.79996Z" fill="white"/>
<path d="M16.9613 8.1472C16.8882 8.14672 16.8152 8.14712 16.7421 8.14839C16.474 8.15397 16.2057 8.1725 15.9391 8.20194C15.9523 8.20856 15.9607 8.21469 15.9578 8.2194L14.9591 9.79075L17.9038 11.7605L17.8989 11.768L20.7128 11.7792L21.5819 9.95885L20.4601 8.87184C19.8278 8.60076 19.1664 8.40317 18.489 8.28295C17.985 8.1937 17.4731 8.14907 16.9613 8.1472H16.9613ZM14.4064 10.3162L11.4716 11.7816L10.9213 15.7025L12.967 17.0436L16.7261 15.3128L17.3187 12.2648L14.4064 10.3162H14.4064ZM22.2294 10.3299L21.3828 12.1029L22.847 15.0004L25.3198 16.5505L25.7706 15.7025C25.7795 15.7082 25.7885 15.7186 25.7967 15.7324C25.766 15.535 25.7286 15.3382 25.6847 15.1434C25.4279 14.0043 24.944 12.9137 24.2703 11.9571C23.9089 11.4443 23.4923 10.9699 23.0313 10.5427L22.2295 10.3298L22.2294 10.3299ZM10.1705 11.2463C9.89533 11.5668 9.64228 11.9061 9.41593 12.2623C8.79134 13.245 8.36246 14.3539 8.16336 15.5021C8.06639 16.0624 8.02343 16.6307 8.03506 17.1992L8.8419 17.4021L10.1579 15.7885L10.7345 11.682L10.1705 11.2463ZM22.6304 15.7424L20.4066 17.5254L20.2683 21.5533L21.8472 22.3951L24.9226 20.4191L25.0982 17.2814L25.0944 17.2876L22.6303 15.7424L22.6304 15.7424ZM17.0186 15.9977L13.272 17.7234L13.2235 20.7764L16.7757 23.0625L19.5225 21.6107L19.6594 17.5566L17.0186 15.9977H17.0186ZM8.08487 17.9799C8.12113 18.316 8.17611 18.6499 8.25046 18.9797C8.50725 20.1188 8.99235 21.2094 9.66619 22.1659C9.8205 22.3851 9.98573 22.5965 10.1592 22.801L9.78572 20.8823L9.79066 20.881L8.71368 18.138L8.08487 17.9799ZM12.7541 21.3604L10.7009 21.6853L11.1043 23.761C11.4459 24.0595 11.8097 24.3318 12.1926 24.5753C12.7761 24.9456 13.4002 25.2477 14.0527 25.4755L16.548 24.93L16.3749 23.6899L12.7541 21.3603L12.7541 21.3604ZM24.8043 21.3803L22.2455 23.0239L20.5721 24.9115L20.7477 25.1567C21.2269 24.9358 21.6868 24.6729 22.1186 24.371C23.0736 23.7032 23.8958 22.8448 24.5204 21.8621C24.6204 21.7048 24.7144 21.5437 24.8043 21.3803L24.8043 21.3803ZM19.9123 25.2713L16.7272 25.6548L15.6925 25.8801C16.768 26.0395 17.8726 26.0014 18.9323 25.768C19.3073 25.6855 19.6768 25.5772 20.038 25.4468L19.9122 25.2712L19.9123 25.2713Z" fill="white"/>
</svg>
