<svg width="23" height="23" viewBox="0 0 23 23" fill="none" xmlns="http://www.w3.org/2000/svg">
<path d="M11.4999 7.31C10.4391 7.31 9.42166 7.73143 8.67151 8.48157C7.92137 9.23172 7.49994 10.2491 7.49994 11.31C7.49994 12.3709 7.92137 13.3883 8.67151 14.1384C9.42166 14.8886 10.4391 15.31 11.4999 15.31C12.5608 15.31 13.5782 14.8886 14.3284 14.1384C15.0785 13.3883 15.4999 12.3709 15.4999 11.31C15.4999 10.2491 15.0785 9.23172 14.3284 8.48157C13.5782 7.73143 12.5608 7.31 11.4999 7.31ZM11.4999 17.31C9.90864 17.31 8.38252 16.6779 7.2573 15.5526C6.13208 14.4274 5.49994 12.9013 5.49994 11.31C5.49994 9.7187 6.13208 8.19258 7.2573 7.06736C8.38252 5.94214 9.90864 5.31 11.4999 5.31C13.0912 5.31 14.6174 5.94214 15.7426 7.06736C16.8678 8.19258 17.4999 9.7187 17.4999 11.31C17.4999 12.9013 16.8678 14.4274 15.7426 15.5526C14.6174 16.6779 13.0912 17.31 11.4999 17.31ZM19.4999 8V3.31H14.8099L11.4999 0L8.18994 3.31H3.49994V8L0.189941 11.31L3.49994 14.62V19.31H8.18994L11.4999 22.62L14.8099 19.31H19.4999V14.62L22.8099 11.31L19.4999 8Z" fill="white"/>
</svg>
