<svg width="21" height="20" viewBox="0 0 21 20" fill="none" xmlns="http://www.w3.org/2000/svg">
<path d="M10.5 20C9.11667 20 7.81667 19.7373 6.6 19.212C5.38334 18.6867 4.325 17.9743 3.425 17.075C2.525 16.1757 1.81267 15.1173 1.288 13.9C0.763335 12.6827 0.500668 11.3827 0.500001 10C0.499335 8.61733 0.762001 7.31733 1.288 6.1C1.814 4.88267 2.52633 3.82433 3.425 2.925C4.32367 2.02567 5.382 1.31333 6.6 0.788C7.818 0.262667 9.118 0 10.5 0C11.882 0 13.182 0.262667 14.4 0.788C15.618 1.31333 16.6763 2.02567 17.575 2.925C18.4737 3.82433 19.1863 4.88267 19.713 6.1C20.2397 7.31733 20.502 8.61733 20.5 10C20.498 11.3827 20.2353 12.6827 19.712 13.9C19.1887 15.1173 18.4763 16.1757 17.575 17.075C16.6737 17.9743 15.6153 18.687 14.4 19.213C13.1847 19.739 11.8847 20.0013 10.5 20ZM11.5 17.925C13.4833 17.675 15.146 16.804 16.488 15.312C17.83 13.82 18.5007 12.0493 18.5 10C18.4993 7.95067 17.8283 6.18 16.487 4.688C15.1457 3.196 13.4833 2.325 11.5 2.075V17.925Z" fill="white"/>
</svg>
