<svg width="16" height="16" viewBox="0 0 16 16" fill="none" xmlns="http://www.w3.org/2000/svg">
<path d="M13.0691 5.15698L8.38405 9.76798C8.28183 9.86911 8.14384 9.92583 8.00005 9.92583C7.85626 9.92583 7.71827 9.86911 7.61605 9.76798L2.93005 5.15798C2.8272 5.0569 2.68876 5.00027 2.54455 5.00027C2.40034 5.00027 2.26191 5.0569 2.15905 5.15798C2.1084 5.20736 2.06815 5.26637 2.04067 5.33155C2.01318 5.39673 1.99902 5.46675 1.99902 5.53748C1.99902 5.60821 2.01318 5.67823 2.04067 5.74341C2.06815 5.80859 2.1084 5.8676 2.15905 5.91698L6.84305 10.527C7.15157 10.8299 7.56667 10.9996 7.99905 10.9996C8.43143 10.9996 8.84653 10.8299 9.15505 10.527L13.8391 5.91698C13.8899 5.86759 13.9302 5.80851 13.9578 5.74324C13.9854 5.67797 13.9996 5.60784 13.9996 5.53698C13.9996 5.46612 13.9854 5.39599 13.9578 5.33072C13.9302 5.26545 13.8899 5.20637 13.8391 5.15698C13.7362 5.0559 13.5978 4.99927 13.4536 4.99927C13.3093 4.99927 13.1709 5.0559 13.0681 5.15698" fill="black"/>
</svg>
